# xmcd
#
# Track frame offsets:
#	150
#	49745
#	66930
#	83312
#	101392
#	117525
#	132552
#	145830
#	164275
#	183925
#	198227
#	211827
#	225765
#	237610
#	255182
#
# Disc length: 3591 seconds
#
# Revision: 1
# Processed by: cddbd v1.5.1PL0 Copyright (c) Steve Scherf et al.
# Submitted via: audiograbber 1.83.01
#
DISCID=c20e050f
DTITLE=Spiritual kvintet - 20 let Live [CD 1)
DYEAR=2001
DGENRE=Folk
TTITLE0=Zelene plane
TTITLE1=Nejdelsi vlak
TTITLE2=Twelve gates
TTITLE3=Kruta valka
TTITLE4=Ruzicka
TTITLE5="Dve baby"
TTITLE6=Sweet Georgia Brown
TTITLE7=Dym, jen dym
TTITLE8=Cernosske ghetto
TTITLE9=Doney Gal
TTITLE10=Ryl, jen cely den ryl
TTITLE11=Tak jen pojd
TTITLE12=Diga diga do
TTITLE13=When the stars begin to fall
TTITLE14=Kdo svalil kamen nahrobni
EXTD=
EXTT0=
EXTT1=
EXTT2=
EXTT3=
EXTT4=
EXTT5=
EXTT6=
EXTT7=
EXTT8=
EXTT9=
EXTT10=
EXTT11=
EXTT12=
EXTT13=
EXTT14=
PLAYORDER=
